<?xml version="1.0" standalone="no"?>
<!DOCTYPE svg PUBLIC "-//W3C//DTD SVG 20010904//EN"
 "http://www.w3.org/TR/2001/REC-SVG-20010904/DTD/svg10.dtd">
<svg version="1.0" xmlns="http://www.w3.org/2000/svg"
 width="360.000000pt" height="360.000000pt" viewBox="0 0 360.000000 360.000000"
 preserveAspectRatio="xMidYMid meet">
<metadata>
Created by potrace 1.14, written by Peter Selinger 2001-2017
</metadata>
<g transform="translate(0.000000,360.000000) scale(0.100000,-0.100000)"
fill="#000000" stroke="none">
<path d="M0 1800 l0 -1800 1800 0 1800 0 0 1800 0 1800 -1800 0 -1800 0 0
-1800z m2670 1330 l0 -190 -685 0 -684 0 -11 -37 c-35 -123 -207 -829 -203
-835 2 -5 233 -8 514 -8 497 0 509 0 509 -19 0 -11 -18 -90 -40 -175 -22 -85
-40 -157 -40 -160 0 -3 -234 -6 -519 -6 -515 0 -520 0 -526 -20 -4 -12 -33
-125 -65 -253 -32 -128 -93 -368 -135 -535 -42 -167 -74 -310 -71 -318 5 -12
106 -14 711 -14 388 0 705 -1 704 -2 0 -2 -21 -86 -47 -188 l-47 -185 -924 -3
-923 -2 6 22 c3 13 180 719 392 1571 l387 1547 849 0 848 0 0 -190z"/>
</g>
</svg>
